<svg width="22" height="22" viewBox="0 0 22 22" fill="none" xmlns="http://www.w3.org/2000/svg">
<path d="M4.125 8.93751L17.875 8.93751C18.2397 8.93751 18.5894 8.79265 18.8473 8.53478C19.1051 8.27692 19.25 7.92718 19.25 7.56251L19.25 5.50001C19.25 5.13534 19.1051 4.7856 18.8473 4.52774C18.5894 4.26988 18.2397 4.12501 17.875 4.12501L4.125 4.12501C3.76033 4.12501 3.41059 4.26988 3.15273 4.52774C2.89487 4.7856 2.75 5.13534 2.75 5.50001L2.75 7.56251C2.75 7.92719 2.89487 8.27692 3.15273 8.53478C3.41059 8.79265 3.76033 8.93751 4.125 8.93751ZM4.125 5.50001L17.875 5.50001L17.875 7.56251L4.125 7.56251L4.125 5.50001ZM17.8544 10.3125L4.14563 10.3125C3.8731 10.3112 3.6062 10.39 3.37808 10.5391C3.14997 10.6882 2.97071 10.9011 2.86258 11.1513C2.75573 11.3952 2.72401 11.6655 2.77146 11.9275C2.81891 12.1896 2.94338 12.4315 3.12899 12.6225L9.46516 19.2835C9.66373 19.4903 9.90204 19.6549 10.1658 19.7673C10.4295 19.8797 10.7133 19.9376 11 19.9376C11.2867 19.9376 11.5705 19.8797 11.8342 19.7673C12.098 19.6549 12.3363 19.4903 12.5348 19.2835L18.871 12.6225C19.0566 12.4315 19.1811 12.1896 19.2285 11.9275C19.276 11.6655 19.2443 11.3952 19.1374 11.1513C19.0293 10.9011 18.85 10.6882 18.6219 10.5391C18.3938 10.39 18.1269 10.3112 17.8544 10.3125ZM11.5388 18.3356C11.4686 18.4074 11.3848 18.4644 11.2923 18.5034C11.1998 18.5423 11.1004 18.5624 11 18.5624C10.8996 18.5624 10.8002 18.5423 10.7077 18.5034C10.6152 18.4644 10.5314 18.4074 10.4612 18.3356L4.13789 11.6875L17.863 11.6875L11.5388 18.3356Z" fill="#141414"/>
</svg>
