<svg width="25" height="25" viewBox="0 0 25 25" fill="none" xmlns="http://www.w3.org/2000/svg">
<path d="M21.875 4.6875H3.125C2.9178 4.6875 2.71909 4.76981 2.57257 4.91632C2.42606 5.06284 2.34375 5.26155 2.34375 5.46875V18.75C2.34375 19.1644 2.50837 19.5618 2.8014 19.8549C3.09442 20.1479 3.49185 20.3125 3.90625 20.3125H21.0938C21.5082 20.3125 21.9056 20.1479 22.1986 19.8549C22.4916 19.5618 22.6562 19.1644 22.6562 18.75V5.46875C22.6562 5.26155 22.5739 5.06284 22.4274 4.91632C22.2809 4.76981 22.0822 4.6875 21.875 4.6875ZM19.8662 6.25L12.5 13.0029L5.13379 6.25H19.8662ZM21.0938 18.75H3.90625V7.24512L11.9717 14.6387C12.1158 14.771 12.3043 14.8444 12.5 14.8444C12.6957 14.8444 12.8842 14.771 13.0283 14.6387L21.0938 7.24512V18.75Z" fill="white"/>
</svg>
