<svg width="32" height="32" viewBox="0 0 32 32" fill="none" xmlns="http://www.w3.org/2000/svg">
<path d="M6.66634 27.3331C5.74034 27.3331 4.95334 27.009 4.30534 26.3608C3.65712 25.7128 3.33301 24.9258 3.33301 23.9998V14.6664C3.33301 13.7404 3.65712 12.9534 4.30534 12.3054C4.95334 11.6572 5.74034 11.3331 6.66634 11.3331C7.21501 11.3331 7.71801 11.4553 8.17534 11.6998C8.63267 11.9442 9.02456 12.2664 9.35101 12.6664H11.333V6.46143H23.333V12.6664H25.333C26.259 12.6664 27.046 12.9905 27.694 13.6388C28.3422 14.2868 28.6663 15.0738 28.6663 15.9998V25.9998H9.35101C9.02456 26.3998 8.63267 26.722 8.17534 26.9664C7.71801 27.2109 7.21501 27.3331 6.66634 27.3331ZM6.66634 25.9998C7.21501 25.9998 7.68556 25.8036 8.07801 25.4114C8.47023 25.019 8.66634 24.5484 8.66634 23.9998V14.6664C8.66634 14.1178 8.47023 13.6472 8.07801 13.2548C7.68556 12.8625 7.21501 12.6664 6.66634 12.6664C6.11767 12.6664 5.64712 12.8625 5.25467 13.2548C4.86245 13.6472 4.66634 14.1178 4.66634 14.6664V23.9998C4.66634 24.5484 4.86245 25.019 5.25467 25.4114C5.64712 25.8036 6.11767 25.9998 6.66634 25.9998ZM12.6663 12.6664H21.9997V7.79476H12.6663V12.6664ZM9.99967 24.6664H27.333V15.9998C27.333 15.4511 27.1369 14.9805 26.7447 14.5881C26.3522 14.1959 25.8817 13.9998 25.333 13.9998H9.99967V24.6664ZM19.9997 18.6664C20.3775 18.6664 20.6941 18.5386 20.9497 18.2831C21.2052 18.0275 21.333 17.7109 21.333 17.3331C21.333 16.9553 21.2052 16.6386 20.9497 16.3831C20.6941 16.1275 20.3775 15.9998 19.9997 15.9998C19.6219 15.9998 19.3052 16.1275 19.0497 16.3831C18.7941 16.6386 18.6663 16.9553 18.6663 17.3331C18.6663 17.7109 18.7941 18.0275 19.0497 18.2831C19.3052 18.5386 19.6219 18.6664 19.9997 18.6664ZM23.9997 18.6664C24.3775 18.6664 24.6941 18.5386 24.9497 18.2831C25.2052 18.0275 25.333 17.7109 25.333 17.3331C25.333 16.9553 25.2052 16.6386 24.9497 16.3831C24.6941 16.1275 24.3775 15.9998 23.9997 15.9998C23.6219 15.9998 23.3052 16.1275 23.0497 16.3831C22.7941 16.6386 22.6663 16.9553 22.6663 17.3331C22.6663 17.7109 22.7941 18.0275 23.0497 18.2831C23.3052 18.5386 23.6219 18.6664 23.9997 18.6664ZM19.9997 22.6664C20.3775 22.6664 20.6941 22.5387 20.9497 22.2831C21.2052 22.0275 21.333 21.7109 21.333 21.3331C21.333 20.9553 21.2052 20.6386 20.9497 20.3831C20.6941 20.1275 20.3775 19.9998 19.9997 19.9998C19.6219 19.9998 19.3052 20.1275 19.0497 20.3831C18.7941 20.6386 18.6663 20.9553 18.6663 21.3331C18.6663 21.7109 18.7941 22.0275 19.0497 22.2831C19.3052 22.5387 19.6219 22.6664 19.9997 22.6664ZM23.9997 22.6664C24.3775 22.6664 24.6941 22.5387 24.9497 22.2831C25.2052 22.0275 25.333 21.7109 25.333 21.3331C25.333 20.9553 25.2052 20.6386 24.9497 20.3831C24.6941 20.1275 24.3775 19.9998 23.9997 19.9998C23.6219 19.9998 23.3052 20.1275 23.0497 20.3831C22.7941 20.6386 22.6663 20.9553 22.6663 21.3331C22.6663 21.7109 22.7941 22.0275 23.0497 22.2831C23.3052 22.5387 23.6219 22.6664 23.9997 22.6664ZM11.9997 22.6664H17.333V15.9998H11.9997V22.6664Z" fill="#141414"/>
</svg>
