<?xml version="1.0" encoding="UTF-8"?>
<svg id="_レイヤー_2" data-name="レイヤー 2" xmlns="http://www.w3.org/2000/svg" viewBox="0 0 763.26 392.38">
  <defs>
    <style>
      .cls-1 {
        fill: #153363;
      }

      .cls-2 {
        fill: #666;
      }
    </style>
  </defs>
  <g id="_レイヤー_1-2" data-name="レイヤー 1">
    <g>
      <g>
        <path class="cls-2" d="M23.7,369.06c-3.04-4.28-4.35-6.28-6.14-10.63v33.6h-5.31v-34.09c-.62,2.14-3.1,10.28-8.69,18.56l-2.55-6.83c5.87-7.31,9.31-17.53,10.76-22.98H2.17v-5.38h10.07v-13.32h5.31v13.32h8.56v5.38h-8.56v4.49c1.38,3.31,5.8,9.25,9.52,13.04l-3.38,4.83ZM49.29,392.03h-5.45v-25.25c-4.48,8.21-9.18,13.59-16.7,19.73l-3.93-4.9c10-7.18,15.66-14.83,18.98-20.91h-16.08v-5.31h17.73v-10.76h-8.76c-2,4.69-3.52,6.76-4.97,8.76l-5.11-3.17c3.45-4.28,6.28-8.97,8.49-20.35l5.73.76c-.41,2.21-.76,4.35-2.14,8.76h6.76v-11.38h5.45v11.38h15.18v5.24h-15.18v10.76h16.77v5.31h-14.83c5.04,10.42,10.14,15.66,15.8,20.36l-3.17,5.8c-7.87-6.97-12.01-14.21-14.56-20.49v25.67Z"/>
        <path class="cls-2" d="M113.19,383.34c-9.94,2.28-22.77,4.35-35.95,6l-.83-5.73c2.9-.21,6.56-.55,15.25-1.79v-21.67h-13.73v-5.38h32.91v5.38h-13.46v20.84c9.94-1.66,12.9-2.28,15.52-2.9l.28,5.24ZM118.64,328c-.07,2.35-.07,5.11.07,11.45h21.87v5.38h-21.67c.76,12.83,1.52,26.08,8.76,36.57.76,1.1,2.69,3.86,4.55,3.86s3.45-4.69,3.86-11.39l5.31,2.42c-.76,5.24-2.14,15.53-8.49,15.53-7.66,0-13.32-11.45-15.04-16.84-3.52-10.63-3.86-16.15-4.69-30.15h-36.5v-5.38h36.29c-.14-3.24-.21-7.38-.21-11.45h5.86ZM133.68,338.97c-2.62-2.28-5.38-4.28-10.76-7.18l3.17-4.14c5.04,2.62,7.11,4.07,11.11,7.04l-3.52,4.28Z"/>
        <path class="cls-2" d="M201.44,352.22h-36.5v-3.86c-6.14,3.79-9.94,5.45-12.28,6.42l-2.83-5.59c20.56-8.07,28.29-19.25,30.15-22.01h6.14c7.18,9.59,18.15,17.94,30.15,22.22l-3.04,5.52c-3.04-1.38-6.9-3.17-11.8-6.49v3.79ZM195.37,368.57c7.38,7.25,11.59,12.08,16.91,20.49l-4.97,3.31c-1.1-1.86-1.93-3.17-3.38-5.31-11.52,1.66-39.67,2.9-50.3,2.9l-.62-5.66h9.52c4.35-7.45,6.97-13.87,8.49-17.87h-18.91v-5.31h61.62v5.31h-36.02c-1.66,3.79-4.42,9.8-8.9,17.73,1.73-.07,9.45-.28,10.9-.34,8.42-.34,15.53-.97,20.63-1.45-.69-.9-4.14-5.24-9.52-10.7l4.55-3.1ZM199.23,346.98c-9.73-6.9-13.73-11.87-16.15-14.9-4.35,6.07-10.21,10.9-16.01,14.9h32.15Z"/>
        <path class="cls-2" d="M242.15,392.03h-5.59v-27.95c-4.35,4-7.52,6.07-9.45,7.31l-2.35-5.66c11.45-6.9,17.87-15.8,20.22-21.39h-19.32v-5.17h10.9v-11.25h5.59v11.25h8.9v5.24c-.69,1.66-2.48,5.93-7.52,12.21,3.66,4.21,6.07,6.28,9.94,9.04l-3.1,5.04c-3.66-2.97-4.42-3.79-8.21-8.28v29.6ZM272.72,327.93v19.94h15.18v5.66h-15.18v30.36h16.77v5.66h-40.23v-5.66h17.66v-30.36h-14.42v-5.66h14.42v-19.94h5.8Z"/>
        <path class="cls-2" d="M330.95,328.97h6.42v17.39h25.88v6.07h-25.94c-.28,11.45-.69,28.22-24.63,38.71l-4.07-5.17c21.67-9.18,22.08-22.84,22.36-33.53h-30.36v-6.07h30.36v-17.39Z"/>
        <path class="cls-2" d="M426.86,345.6c-17.73,8.21-31.19,11.87-40.85,13.66v14.7c0,7.38,2.14,8.42,23.25,8.42,3.86,0,11.8,0,22.49-.76v6.35c-8.28.35-11.66.48-19.53.48-24.7,0-32.57-.41-32.57-14.28v-44.85h6.35v24.08c16.63-3.45,29.6-9.18,37.33-12.97l3.52,5.18ZM425.69,331.8c3.73,3.45,5.31,5.59,6.35,6.97l-3.17,2.76c-2.07-2.83-3.86-4.76-6.14-6.97l2.97-2.76ZM431.83,327.04c2.69,2.48,4.14,4.14,6.42,6.97l-3.24,2.76c-2.55-3.31-3.52-4.42-6.14-6.97l2.97-2.76Z"/>
        <path class="cls-2" d="M445.36,379.34c12.9-7.8,23.94-18.29,32.71-30.57h-32.02v-5.93h34.91l-.14-14.7h6.14l.14,14.7h18.56v5.93h-18.49l.28,31.67c.07,7.45-.69,10.42-14.35,10.14l-1.79-6.21c1.79.07,3.73.14,5.59.14,4.42,0,4.35-1.17,4.35-4.9l-.14-24.98c-5.8,7.73-13.46,17.87-31.4,29.39l-4.35-4.69Z"/>
      </g>
      <circle class="cls-1" cx="101.34" cy="18.83" r="18.83"/>
      <circle class="cls-2" cx="174.66" cy="18.83" r="18.83"/>
      <polygon class="cls-1" points="486.6 296.89 525.36 296.89 573.96 137.91 535.21 137.91 486.6 296.89"/>
      <path class="cls-1" d="M154.73,137.91l-30.13,98.54c-.85,2.77-4.82,2.64-5.47-.19l-20.26-87.28c-1.84-9.24-9.48-15.58-20.54-15.58-15.66,0-32.23,12.69-37.01,28.35L0,296.89h38.75l34.17-111.75c.85-2.77,4.82-2.64,5.47.19l23.79,102.56c1.68,7.69,8.12,12.94,17.4,12.94,13.31,0,27.39-10.79,31.46-24.09l42.44-138.81h-38.75Z"/>
      <path class="cls-1" d="M290.91,133.98c-35.87,0-71.55,21.57-79.69,48.19l-35.07,114.72h38.75l35.07-114.72h0c3.11-10.18,17.36-18.43,31.84-18.43s23.68,8.25,20.57,18.43h0l-7.78,25.44h-40.62l-9.21,30.13h40.62l-18.08,59.14h38.75l18.08-59.14,9.21-30.13,7.78-25.44c8.14-26.61-14.35-48.19-50.22-48.19Z"/>
      <path class="cls-1" d="M415.21,296.89c26.26,0,51.21-21.32,59.25-47.62,4.78-15.63-.75-31.99-13.17-40.67,13.86-7,23.18-14.56,26.59-25.72,8.44-27.6-3.47-49.97-42.47-49.97s-65.69,22.37-74.12,49.97l-34.86,114.01h37.33l34.86-114.01c3.17-10.36,16.15-18.76,27.25-18.76s17.52,8.4,14.36,18.76c-3.17,10.36-14.32,17.42-25.42,17.42h-11.49l-8.06,26.36h18.21c11.1,0,17.03,10.02,13.76,20.72-3.27,10.7-14.51,18.03-25.61,18.03h-18.21s-9.62,31.48-9.62,31.48h31.43Z"/>
      <path class="cls-1" d="M698.77,133.98c-50.02,0-104.63,37.35-121.97,83.42-17.34,46.07,9.16,83.42,59.18,83.42s104.63-37.35,121.97-83.42c17.34-46.07-9.16-83.42-59.18-83.42ZM715.93,215.64c-11.46,31.68-42.81,57.36-70.01,57.36s-39.97-25.68-28.51-57.36c11.46-31.68,42.81-57.36,70.01-57.36s39.97,25.68,28.51,57.36Z"/>
    </g>
  </g>
</svg>